<svg id="Capa_1" enable-background="new 0 0 512 512" height="512" viewBox="0 0 512 512" width="512" xmlns="http://www.w3.org/2000/svg" xmlns:xlink="http://www.w3.org/1999/xlink">
  <linearGradient id="SVGID_1_" gradientUnits="userSpaceOnUse" x1="256" x2="256" y1="512" y2="0">
    <stop offset="0" stop-color="#ffc2cc"/>
    <stop offset="1" stop-color="#fff2f4"/>
  </linearGradient>
  <linearGradient id="SVGID_2_" gradientUnits="userSpaceOnUse" x1="256" x2="256" y1="407" y2="105">
    <stop offset="0" stop-color="#ffa68d"/>
    <stop offset="1" stop-color="#fd3a84"/>
  </linearGradient>
  <g>
    <g>
      <circle cx="256" cy="256" fill="url(#SVGID_1_)" r="256"/>
    </g>
    <g>
      <g>
        <path d="m344.667 318.176c-12.156 0-23.175 4.94-31.191 12.906l-72.556-48.458c3.867-8.102 6.214-17.061 6.214-26.624s-2.346-18.523-6.214-26.624l72.556-48.458c8.017 7.966 19.035 12.906 31.191 12.906 24.444 0 44.333-19.925 44.333-44.412s-19.889-44.412-44.333-44.412-44.333 19.925-44.333 44.412c0 5.919 1.21 11.549 3.318 16.717l-72.606 48.492c-11.37-12.668-27.677-20.797-45.979-20.797-34.22-.001-62.067 27.896-62.067 62.176s27.847 62.176 62.067 62.176c18.302 0 34.608-8.13 45.979-20.797l72.606 48.492c-2.107 5.169-3.318 10.798-3.318 16.717 0 24.487 19.889 44.412 44.333 44.412s44.333-19.925 44.333-44.412-19.889-44.412-44.333-44.412z" fill="url(#SVGID_2_)"/>
      </g>
    </g>
  </g>
</svg>